General
Count                                    : 359
Count of stream of this kind             : 1
Kind of stream                           : General
Kind of stream                           : General
Stream identifier                        : 0
Unique ID                                : 32825481687192747090692071441355350005
Unique ID                                : 32825481687192747090692071441355350005 (0x18B1F5332B5049F64C0026E033359FF5)
Count of video streams                   : 1
Count of audio streams                   : 2
Count of text streams                    : 2
Count of menu streams                    : 1
Video_Format_List                        : HEVC
Video_Format_WithHint_List               : HEVC
Codecs Video                             : HEVC
Audio_Format_List                        : DTS / AC-3
Audio_Format_WithHint_List               : DTS / AC-3
Audio codecs                             : DTS / AC-3
Audio_Language_List                      : English / English
Audio_Channels_Total                     : 12
Text_Format_List                         : VobSub / VobSub
Text_Format_WithHint_List                : VobSub / VobSub
Text codecs                              : VobSub / VobSub
Text_Language_List                       : English / English
Complete name                            : \\synologynas\library\movies\2 Fast 2 Furious (2003)\2 Fast 2 Furious [2003].mkv
Folder name                              : \\synologynas\library\movies\2 Fast 2 Furious (2003)
File name extension                      : 2 Fast 2 Furious [2003].mkv
File name                                : 2 Fast 2 Furious [2003]
File extension                           : mkv
Format                                   : Matroska
Format                                   : Matroska
Format/Url                               : https://matroska.org/downloads/windows.html
Format/Extensions usually used           : mkv mk3d mka mks
Commercial name                          : Matroska
Format version                           : Version 4
File size                                : 4651925736
File size                                : 4.33 GiB
File size                                : 4 GiB
File size                                : 4.3 GiB
File size                                : 4.33 GiB
File size                                : 4.332 GiB
Duration                                 : 6454865
Duration                                 : 1 h 47 min
Duration                                 : 1 h 47 min 34 s 865 ms
Duration                                 : 1 h 47 min
Duration                                 : 01:47:34.865
Duration                                 : 01:47:28:10
Duration                                 : 01:47:34.865 (01:47:28:10)
Overall bit rate                         : 5765482
Overall bit rate                         : 5 765 kb/s
Frame rate                               : 23.976
Frame rate                               : 23.976 FPS
Frame count                              : 154762
IsStreamable                             : Yes
Title                                    : 2 Fast 2 Furious [2003](UKB)
Movie name                               : 2 Fast 2 Furious [2003](UKB)
Encoded date                             : 2024-08-08 04:42:27 UTC
File creation date                       : 2024-09-03 19:29:05.989 UTC
File creation date (local)               : 2024-09-03 21:29:05.989
File last modification date              : 2025-05-11 14:00:49.563 UTC
File last modification date (local)      : 2025-05-11 16:00:49.563
Writing application                      : mkvmerge v51.0.0 ('I Wish') 64-bit
Writing application                      : mkvmerge v51.0.0 ('I Wish') 64-bit
Writing library                          : libebml v1.4.0 + libmatroska v1.6.2
Writing library                          : libebml v1.4.0 + libmatroska v1.6.2

Video
Count                                    : 390
Count of stream of this kind             : 1
Kind of stream                           : Video
Kind of stream                           : Video
Stream identifier                        : 0
StreamOrder                              : 0
ID                                       : 1
ID                                       : 1
Unique ID                                : 9401583888491943735
Format                                   : HEVC
Format                                   : HEVC
Format/Info                              : High Efficiency Video Coding
Format/Url                               : http://www.itu.int
Commercial name                          : HEVC
Format profile                           : Main 10@L4@Main
Internet media type                      : video/H265
Codec ID                                 : V_MPEGH/ISO/HEVC
Duration                                 : 6454865.000000
Duration                                 : 1 h 47 min
Duration                                 : 1 h 47 min 34 s 865 ms
Duration                                 : 1 h 47 min
Duration                                 : 01:47:34.865
Duration                                 : 01:47:28:10
Duration                                 : 01:47:34.865 (01:47:28:10)
Bit rate                                 : 3601910
Bit rate                                 : 3 602 kb/s
Width                                    : 1920
Width                                    : 1 920 pixels
Height                                   : 816
Height                                   : 816 pixels
Sampled_Width                            : 1920
Sampled_Height                           : 816
Pixel aspect ratio                       : 1.000
Display aspect ratio                     : 2.353
Display aspect ratio                     : 2.35:1
Frame rate mode                          : CFR
Frame rate mode                          : Constant
Frame rate                               : 23.976
Frame rate                               : 23.976 (24000/1001) FPS
FrameRate_Num                            : 24000
FrameRate_Den                            : 1001
Frame count                              : 154762
Color space                              : YUV
Chroma subsampling                       : 4:2:0
Chroma subsampling                       : 4:2:0
Bit depth                                : 10
Bit depth                                : 10 bits
Bits/(Pixel*Frame)                       : 0.096
Delay                                    : 0
Delay                                    : 00:00:00.000
Delay                                    : 00:00:00:00
Delay                                    : 00:00:00.000 (00:00:00:00)
Delay, origin                            : Container
Delay, origin                            : Container
Stream size                              : 2906230438
Stream size                              : 2.71 GiB (62%)
Stream size                              : 3 GiB
Stream size                              : 2.7 GiB
Stream size                              : 2.71 GiB
Stream size                              : 2.707 GiB
Stream size                              : 2.71 GiB (62%)
Proportion of this stream                : 0.62474
Writing library                          : x265 - 3.4+22-ga988fbbac:[Windows][GCC 10.2.0][64 bit] 10bit
Writing library                          : x265 3.4+22-ga988fbbac:[Windows][GCC 10.2.0][64 bit] 10bit
Encoded_Library_Name                     : x265
Encoded_Library_Version                  : 3.4+22-ga988fbbac:[Windows][GCC 10.2.0][64 bit] 10bit
Encoding settings                        : cpuid=1111039 / frame-threads=3 / numa-pools=8 / wpp / no-pmode / no-pme / no-psnr / no-ssim / log-level=2 / input-csp=1 / input-res=1920x816 / interlace=0 / total-frames=154762 / level-idc=0 / high-tier=1 / uhd-bd=0 / ref=3 / no-allow-non-conformance / no-repeat-headers / annexb / no-aud / no-hrd / info / hash=0 / no-temporal-layers / open-gop / min-keyint=24 / keyint=240 / gop-lookahead=0 / bframes=4 / b-adapt=2 / b-pyramid / bframe-bias=0 / rc-lookahead=20 / lookahead-slices=5 / scenecut=40 / hist-scenecut=0 / radl=0 / no-splice / no-intra-refresh / ctu=32 / min-cu-size=8 / no-rect / no-amp / max-tu-size=32 / tu-inter-depth=1 / tu-intra-depth=1 / limit-tu=0 / rdoq-level=0 / dynamic-rd=0.00 / no-ssim-rd / signhide / no-tskip / nr-intra=0 / nr-inter=0 / no-constrained-intra / strong-intra-smoothing / max-merge=3 / limit-refs=1 / no-limit-modes / me=1 / subme=2 / merange=25 / temporal-mvp / no-frame-dup / no-hme / weightp / no-weightb / no-analyze-src-pics / deblock=0:0 / sao / no-sao-non-deblock / rd=3 / selective-sao=4 / early-skip / rskip / no-fast-intra / no-tskip-fast / no-cu-lossless / b-intra / no-splitrd-skip / rdpenalty=0 / psy-rd=2.00 / psy-rdoq=0.00 / no-rd-refine / no-lossless / cbqpoffs=0 / crqpoffs=0 / rc=abr / bitrate=3602 / qcomp=0.60 / qpstep=4 / stats-write=0 / stats-read=2 / cplxblur=20.0 / qblur=0.5 / ipratio=1.40 / pbratio=1.30 / aq-mode=2 / aq-strength=1.00 / cutree / zone-count=0 / no-strict-cbr / qg-size=32 / no-rc-grain / qpmax=69 / qpmin=0 / no-const-vbv / sar=1 / overscan=0 / videoformat=5 / range=0 / colorprim=1 / transfer=1 / colormatrix=1 / chromaloc=0 / display-window=0 / cll=0,0 / min-luma=0 / max-luma=1023 / log2-max-poc-lsb=8 / vui-timing-info / vui-hrd-info / slices=1 / no-opt-qp-pps / no-opt-ref-list-length-pps / no-multi-pass-opt-rps / scenecut-bias=0.05 / hist-threshold=0.03 / no-opt-cu-delta-qp / no-aq-motion / no-hdr10 / no-hdr10-opt / no-dhdr10-opt / no-idr-recovery-sei / analysis-reuse-level=0 / analysis-save-reuse-level=0 / analysis-load-reuse-level=0 / scale-factor=0 / refine-intra=0 / refine-inter=0 / refine-mv=1 / refine-ctu-distortion=0 / no-limit-sao / ctu-info=0 / no-lowpass-dct / refine-analysis-type=0 / copy-pic=1 / max-ausize-factor=1.0 / no-dynamic-refine / no-single-sei / no-hevc-aq / no-svt / no-field / qp-adaptation-range=1.00 / no-scenecut-aware-qpconformance-window-offsets / right=0 / bottom=0 / decoder-max-rate=0
Default                                  : Yes
Default                                  : Yes
Forced                                   : No
Forced                                   : No
colour_description_present               : Yes
colour_description_present_Source        : Stream
Color range                              : Limited
colour_range_Source                      : Stream
Color primaries                          : BT.709
colour_primaries_Source                  : Stream
Transfer characteristics                 : BT.709
transfer_characteristics_Source          : Stream
Matrix coefficients                      : BT.709
matrix_coefficients_Source               : Stream

Audio #1
Count                                    : 285
Count of stream of this kind             : 2
Kind of stream                           : Audio
Kind of stream                           : Audio
Stream identifier                        : 0
Stream identifier                        : 1
StreamOrder                              : 1
ID                                       : 2
ID                                       : 2
Unique ID                                : 2734222367685704904
Format                                   : DTS
Format                                   : DTS
Format/Info                              : Digital Theater Systems
Format/Url                               : https://en.wikipedia.org/wiki/DTS_(sound_system)
Commercial name                          : DTS
Mode                                     : 16
Format settings, Endianness              : Big
Codec ID                                 : A_DTS
Duration                                 : 6454859.000000
Duration                                 : 1 h 47 min
Duration                                 : 1 h 47 min 34 s 859 ms
Duration                                 : 1 h 47 min
Duration                                 : 01:47:34.859
Duration                                 : 01:47:34.859
Bit rate mode                            : CBR
Bit rate mode                            : Constant
Bit rate                                 : 1509000
Bit rate                                 : 1 509 kb/s
Channel(s)                               : 6
Channel(s)                               : 6 channels
Channel positions                        : Front: L C R, Side: L R, LFE
Channel positions                        : 3/2/0.1
Channel layout                           : C L R Ls Rs LFE
Samples per frame                        : 512
Sampling rate                            : 48000
Sampling rate                            : 48.0 kHz
Samples count                            : 309833232
Frame rate                               : 93.750
Frame rate                               : 93.750 FPS (512 SPF)
Frame count                              : 605143
Bit depth                                : 24
Bit depth                                : 24 bits
Compression mode                         : Lossy
Compression mode                         : Lossy
Delay                                    : 0
Delay                                    : 00:00:00.000
Delay                                    : 00:00:00.000
Delay, origin                            : Container
Delay, origin                            : Container
Delay relative to video                  : 0
Delay relative to video                  : 00:00:00.000
Delay relative to video                  : 00:00:00.000
Stream size                              : 1217547716
Stream size                              : 1.13 GiB (26%)
Stream size                              : 1 GiB
Stream size                              : 1.1 GiB
Stream size                              : 1.13 GiB
Stream size                              : 1.134 GiB
Stream size                              : 1.13 GiB (26%)
Proportion of this stream                : 0.26173
Title                                    : English DTS 5.1 @ 1509 Kbps - Original
Language                                 : en
Language                                 : English
Language                                 : English
Language                                 : en
Language                                 : eng
Language                                 : en
Default                                  : Yes
Default                                  : Yes
Forced                                   : No
Forced                                   : No

Audio #2
Count                                    : 301
Count of stream of this kind             : 2
Kind of stream                           : Audio
Kind of stream                           : Audio
Stream identifier                        : 1
Stream identifier                        : 2
StreamOrder                              : 2
ID                                       : 3
ID                                       : 3
Unique ID                                : 3599555194332949956
Format                                   : AC-3
Format                                   : AC-3
Format/Info                              : Audio Coding 3
Format/Url                               : https://en.wikipedia.org/wiki/AC3
Commercial name                          : Dolby Digital
Commercial name                          : Dolby Digital
Format settings, Endianness              : Big
Codec ID                                 : A_AC3
Duration                                 : 6454848.000000
Duration                                 : 1 h 47 min
Duration                                 : 1 h 47 min 34 s 848 ms
Duration                                 : 1 h 47 min
Duration                                 : 01:47:34.848
Duration                                 : 01:47:34.848
Bit rate mode                            : CBR
Bit rate mode                            : Constant
Bit rate                                 : 640000
Bit rate                                 : 640 kb/s
Channel(s)                               : 6
Channel(s)                               : 6 channels
Channel positions                        : Front: L C R, Side: L R, LFE
Channel positions                        : 3/2/0.1
Channel layout                           : L R C LFE Ls Rs
Samples per frame                        : 1536
Sampling rate                            : 48000
Sampling rate                            : 48.0 kHz
Samples count                            : 309832704
Frame rate                               : 31.250
Frame rate                               : 31.250 FPS (1536 SPF)
Frame count                              : 201714
Compression mode                         : Lossy
Compression mode                         : Lossy
Delay                                    : 0
Delay                                    : 00:00:00.000
Delay                                    : 00:00:00.000
Delay, origin                            : Container
Delay, origin                            : Container
Delay relative to video                  : 0
Delay relative to video                  : 00:00:00.000
Delay relative to video                  : 00:00:00.000
Stream size                              : 516387840
Stream size                              : 492 MiB (11%)
Stream size                              : 492 MiB
Stream size                              : 492 MiB
Stream size                              : 492 MiB
Stream size                              : 492.5 MiB
Stream size                              : 492 MiB (11%)
Proportion of this stream                : 0.11101
Title                                    : English AC3 5.1 @ 640 Kbps - Original
Language                                 : en
Language                                 : English
Language                                 : English
Language                                 : en
Language                                 : eng
Language                                 : en
Service kind                             : CM
Service kind                             : Complete Main
Default                                  : No
Default                                  : No
Forced                                   : No
Forced                                   : No
bsid                                     : 8
Dialog Normalization                     : -31
Dialog Normalization                     : -31 dB
acmod                                    : 7
lfeon                                    : 1
cmixlev                                  : -4.5
cmixlev                                  : -4.5 dB
surmixlev                                : -6 dB
surmixlev                                : -6 dB
dialnorm_Average                         : -31
dialnorm_Average                         : -31 dB
dialnorm_Minimum                         : -31
dialnorm_Minimum                         : -31 dB
dialnorm_Maximum                         : -31
dialnorm_Maximum                         : -31 dB
dialnorm_Count                           : 540

Text #1
Count                                    : 305
Count of stream of this kind             : 2
Kind of stream                           : Text
Kind of stream                           : Text
Stream identifier                        : 0
Stream identifier                        : 1
StreamOrder                              : 3
ID                                       : 4
ID                                       : 4
Unique ID                                : 8001554171327473733
Format                                   : VobSub
Format                                   : VobSub
Commercial name                          : VobSub
Muxing mode                              : zlib
Codec ID                                 : S_VOBSUB
Codec ID/Info                            : Picture based subtitle format used on DVDs
Duration                                 : 6034017.000000
Duration                                 : 1 h 40 min
Duration                                 : 1 h 40 min 34 s 17 ms
Duration                                 : 1 h 40 min
Duration                                 : 01:40:34.017
Duration                                 : 01:40:34.017
Bit rate                                 : 10561
Bit rate                                 : 10.6 kb/s
Frame rate                               : 0.217
Frame rate                               : 0.217 FPS
Frame count                              : 1308
Count of elements                        : 1308
Stream size                              : 7965980
Stream size                              : 7.60 MiB (0%)
Stream size                              : 8 MiB
Stream size                              : 7.6 MiB
Stream size                              : 7.60 MiB
Stream size                              : 7.597 MiB
Stream size                              : 7.60 MiB (0%)
Proportion of this stream                : 0.00171
Language                                 : en
Language                                 : English
Language                                 : English
Language                                 : en
Language                                 : eng
Language                                 : en
Default                                  : No
Default                                  : No
Forced                                   : No
Forced                                   : No

Text #2
Count                                    : 305
Count of stream of this kind             : 2
Kind of stream                           : Text
Kind of stream                           : Text
Stream identifier                        : 1
Stream identifier                        : 2
StreamOrder                              : 4
ID                                       : 5
ID                                       : 5
Unique ID                                : 13256796107830851066
Format                                   : VobSub
Format                                   : VobSub
Commercial name                          : VobSub
Muxing mode                              : zlib
Codec ID                                 : S_VOBSUB
Codec ID/Info                            : Picture based subtitle format used on DVDs
Duration                                 : 6026718.000000
Duration                                 : 1 h 40 min
Duration                                 : 1 h 40 min 26 s 718 ms
Duration                                 : 1 h 40 min
Duration                                 : 01:40:26.718
Duration                                 : 01:40:26.718
Bit rate                                 : 9959
Bit rate                                 : 9 959 b/s
Frame rate                               : 0.206
Frame rate                               : 0.206 FPS
Frame count                              : 1241
Count of elements                        : 1241
Stream size                              : 7503123
Stream size                              : 7.16 MiB (0%)
Stream size                              : 7 MiB
Stream size                              : 7.2 MiB
Stream size                              : 7.16 MiB
Stream size                              : 7.156 MiB
Stream size                              : 7.16 MiB (0%)
Proportion of this stream                : 0.00161
Language                                 : en
Language                                 : English
Language                                 : English
Language                                 : en
Language                                 : eng
Language                                 : en
Default                                  : No
Default                                  : No
Forced                                   : No
Forced                                   : No

Menu
Count                                    : 120
Count of stream of this kind             : 1
Kind of stream                           : Menu
Kind of stream                           : Menu
Stream identifier                        : 0
Chapters_Pos_Begin                       : 101
Chapters_Pos_End                         : 120
00:00:00.000                             : en:Time for Ignition
00:11:28.688                             : en:Surprise!
00:14:19.817                             : en:Busted
00:16:01.627                             : en:In the Interest of Justice
00:18:56.344                             : en:The Man for the Job
00:24:22.544                             : en:Verone's New Drivers
00:28:15.819                             : en:The Audition
00:35:13.153                             : en:Hungry
00:40:07.322                             : en:The Best of Everything
00:46:43.384                             : en:Two More Cars
00:58:54.114                             : en:A Little Fun
01:05:02.190                             : en:Looking for Monica
01:10:24.303                             : en:The Wrong Two Guys
01:13:37.038                             : en:Guns, Murderers & Cops
01:22:14.638                             : en:Let the Party Begin
01:29:53.138                             : en:The New Plan
01:35:16.628                             : en:Doing it Big
01:37:31.971                             : en:Clean Records
01:40:32.026                             : en:End Titles